<?xml version="1.0" encoding="UTF-8"?>
<svg width="16px" height="16px" viewBox="0 0 16 16" version="1.1" xmlns="http://www.w3.org/2000/svg" xmlns:xlink="http://www.w3.org/1999/xlink">
    <title>icon_delete</title>
    <g id="home" stroke="none" stroke-width="1" fill="none" fill-rule="evenodd">
        <g id="home/normal" transform="translate(-1334.000000, -78.000000)">
            <g id="header/search/histroy" transform="translate(968.000000, 16.000000)">
                <g id="下拉框" transform="translate(0.000000, 18.000000)">
                    <g id="search" transform="translate(30.000000, 38.000000)">
                        <g id="icon/delete" transform="translate(336.000000, 6.000000)">
                            <polygon id="路径" points="0 0 16 0 16 16 0 16"></polygon>
                            <path d="M2.66666667,5.33333333 L13.3333333,5.33333333 L13.3333333,14 C13.3333333,14.3681898 13.0348565,14.6666667 12.6666667,14.6666667 L3.33333333,14.6666667 C2.9651435,14.6666667 2.66666667,14.3681898 2.66666667,14 L2.66666667,5.33333333 Z M4,6.66666667 L4,13.3333333 L12,13.3333333 L12,6.66666667 L4,6.66666667 Z M6,8 L7.33333333,8 L7.33333333,12 L6,12 L6,8 Z M8.66666667,8 L10,8 L10,12 L8.66666667,12 L8.66666667,8 Z M4.66666667,3.33333333 L4.66666667,2 C4.66666667,1.63181017 4.9651435,1.33333333 5.33333333,1.33333333 L10.6666667,1.33333333 C11.0348565,1.33333333 11.3333333,1.63181017 11.3333333,2 L11.3333333,3.33333333 L14.6666667,3.33333333 L14.6666667,4.66666667 L1.33333333,4.66666667 L1.33333333,3.33333333 L4.66666667,3.33333333 Z M6,2.66666667 L6,3.33333333 L10,3.33333333 L10,2.66666667 L6,2.66666667 Z" id="形状" fill="#000" fill-rule="nonzero"></path>
                        </g>
                    </g>
                </g>
            </g>
        </g>
    </g>
</svg>