<?xml version="1.0" standalone="no"?><!DOCTYPE svg PUBLIC "-//W3C//DTD SVG 1.1//EN" "http://www.w3.org/Graphics/SVG/1.1/DTD/svg11.dtd"><svg t="1671002981729" class="icon" viewBox="0 0 1024 1024" version="1.1" xmlns="http://www.w3.org/2000/svg" p-id="6434" xmlns:xlink="http://www.w3.org/1999/xlink" width="32" height="32"><path d="M833.6 102.9H191.1c-21 0-37.9 19.4-37.9 43.2v732c0 23.9 17 43.2 37.9 43.2h642.5c21 0 37.9-19.4 37.9-43.2v-732c0-23.9-17-43.2-37.9-43.2z m-2.5 726.5c0 32.7-10.4 43.2-37.9 43.2h-564c-28.7 0-37.9-14.5-37.9-43.2V188.2c0-31.4 4.6-43.2 37.9-43.2h564c28.7 0 36.8 9.2 37.9 43.2v641.2z" fill="#ffffff" p-id="6435"></path><path d="M537.4 254.2H295.1c-21.7 0-39.4 17.6-39.4 39.4v114.7c0 21.7 17.6 39.4 39.4 39.4h266.4c21.7 0 39.4-17.6 39.4-39.4l-24-114.7c-6.7-26.2-17.7-39.4-39.5-39.4z m3.5 153H310.6c-7.9 0-14.3-6.4-14.3-14.3v-87.4c0-7.9 6.4-14.3 14.3-14.3H522c7.9 0 11.4 6.4 14.3 14.3l19 87.4c0 7.9-6.4 14.3-14.4 14.3zM376.8 546.3c-55.2 0-100 44.8-100 100s44.8 100 100 100 100-44.8 100-100-44.8-100-100-100z m0 162c-34.2 0-62-27.8-62-62s27.8-62 62-62 62 27.8 62 62c0 34.3-27.8 62-62 62z" fill="#ffffff" p-id="6436"></path></svg>