<?xml version="1.0" standalone="no"?><!DOCTYPE svg PUBLIC "-//W3C//DTD SVG 1.1//EN" "http://www.w3.org/Graphics/SVG/1.1/DTD/svg11.dtd"><svg t="1671004043675" class="icon" viewBox="0 0 1024 1024" version="1.1" xmlns="http://www.w3.org/2000/svg" p-id="23762" xmlns:xlink="http://www.w3.org/1999/xlink" width="32" height="32"><path d="M915.125 180.75c-9.375-25-31.25-43.75-59.375-43.75H171.375c-28.125 0-53.125 18.75-62.5 46.875L34.622 488.841c-5.748 23.61 8.732 47.411 32.343 53.16a44 44 0 0 0 10.408 1.249h869.368c24.3 0 44-19.7 44-44a44 44 0 0 0-1.229-10.324L915.125 180.75zM12 824.5c0 34.375 28.125 62.5 62.5 62.5h875c34.375 0 62.5-28.125 62.5-62.5V649.75c0-24.3-19.7-44-44-44H56c-24.3 0-44 19.7-44 44V824.5z m851.65-5.13H716.983c-40.501 0-73.334-32.832-73.334-73.333s32.833-73.334 73.334-73.334H863.65c40.501 0 73.334 32.833 73.334 73.334 0 40.501-32.833 73.334-73.334 73.334z" fill="#ffffff" p-id="23763"></path></svg>