<?xml version="1.0" encoding="UTF-8"?>
<svg width="24px" height="24px" viewBox="0 0 24 24" version="1.1" xmlns="http://www.w3.org/2000/svg" xmlns:xlink="http://www.w3.org/1999/xlink">
    <title>icon_calculator_24</title>
    <g id="home" stroke="none" stroke-width="1" fill="none" fill-rule="evenodd">
        <g id="home/normal" transform="translate(-1496.000000, -1117.000000)">
            <g id="card" transform="translate(361.000000, 610.000000)">
                <g transform="translate(31.000000, 114.000000)" id="理論收益">
                    <g transform="translate(816.000000, 342.000000)">
                        <g id="title" transform="translate(40.000000, 48.000000)">
                            <g id="icon/calculator_24" transform="translate(248.000000, 3.000000)">
                                <polygon id="路径" points="0 0 24 0 24 24 0 24"></polygon>
                                <path d="M4,2 L20,2 C20.5522847,2 21,2.44771525 21,3 L21,21 C21,21.5522847 20.5522847,22 20,22 L4,22 C3.44771525,22 3,21.5522847 3,21 L3,3 C3,2.44771525 3.44771525,2 4,2 Z M5,4 L5,20 L19,20 L19,4 L5,4 Z M7,6 L17,6 L17,10 L7,10 L7,6 Z M7,12 L9,12 L9,14 L7,14 L7,12 Z M7,16 L9,16 L9,18 L7,18 L7,16 Z M11,12 L13,12 L13,14 L11,14 L11,12 Z M11,16 L13,16 L13,18 L11,18 L11,16 Z M15,12 L17,12 L17,18 L15,18 L15,12 Z" id="形状" fill="#000" fill-rule="nonzero"></path>
                            </g>
                        </g>
                    </g>
                </g>
            </g>
        </g>
    </g>
</svg>